# xmcd
#
# Track frame offsets: 
#        150
#        12184
#        21902
#        33525
#        46744
#        58460
#        70826
#        83098
#        95545
#        109326
#        119238
#        132893
#        147201
#        158232
#        168325
#        178701
#        190569
#        200922
#        212490
#        223364
#
# Disc length: 3119 seconds
#
# Revision: 2
# Processed by: cddbd v1.5.2PL0 Copyright (c) Steve Scherf et al.
# Submitted via: ExactAudioCopyFreeDBPlugin 1.0
#
DISCID=2e0c2d14
DTITLE=Various Artist - Country and Western - CD2
DYEAR=2005
DGENRE=Country Classics
TTITLE0=Jim Reeves - Mexican Joe
TTITLE1=Ned Miller - From A Jack To A King
TTITLE2=Patsy Cline - Walkin' After Midnight
TTITLE3=Hank Williams - Hey Good Looking
TTITLE4=Tennessee Ernie Ford - The Shotgun Boogie
TTITLE5=Hank Thompson - The Wild Side Of Life
TTITLE6=Johnny Cash - I Walk The Line
TTITLE7=Webb Pierce - Back Street Affair
TTITLE8=Patti Page - Tennessee Waltz
TTITLE9=Eddy Arnold - I Wanna Play House With You
TTITLE10=Pee Wee King - Slow Poke
TTITLE11=Slim Whitman - Indian Love Call
TTITLE12=Patsy Cline - I Can't Forget
TTITLE13=Jerry Lee Lewis - I Forget To Remember I Forgot
TTITLE14=Ernest Tubb - Two Glasses Joe
TTITLE15=Spade Cooley - You Better Do It Now
TTITLE16=Sons Of The Pioneers - Sierra Nevada
TTITLE17=Ramblin Jimmie Dolan - Hot Rod Race
TTITLE18=Hank Willams - Why Don't You Love Me
TTITLE19=Hank Penny and Jay P Morgan - That's My Weakness Now
EXTD=YEAR: 2005
EXTT0=
EXTT1=
EXTT2=
EXTT3=
EXTT4=
EXTT5=
EXTT6=
EXTT7=
EXTT8=
EXTT9=
EXTT10=
EXTT11=
EXTT12=
EXTT13=
EXTT14=
EXTT15=
EXTT16=
EXTT17=
EXTT18=
EXTT19=
PLAYORDER=
